<svg viewBox="0 0 100.5 194.1"><path d="M100.4 38c0 9.3-.2 18.7.1 28 .5 16-9.9 28.5-23 31.9-1.7.4-1.9 1.6-1.9 3v51.5c.1 11.2.2 22.5.3 33.7 0 4.7-1 6.1-5.5 7.3-3.9 1-7.7 1-11.4-.9-2.3-1.2-3.6-2.8-3.6-5.7.2-19.3.2-38.7.3-58 0-4.4 0-4.3-4.4-4.4-7.3-.1-14.7.2-21.9-.6-10.4-1.1-18.1-7-23.8-15.6C2 102.8.3 96.7.2 90.3 0 80.1 0 70 0 59.8c0-4.2 2.1-6.2 5.7-5.8 2.7.2 4.5 2.5 4.5 5.9v29.5c0 11.7 7.3 21.2 18.6 24.2 2.3.6 4.8.8 7.2.8 5.5.1 11-.1 16.5.1 2.5.1 3.2-.8 3.1-3.2-.1-7.6-.1-15.2 0-22.7.1-4.2 2.2-7.3 6-9 3.8-1.7 7.4-1 10.4 1.7 1.3 1.2 2.3 2.9 2.9 4.5.7 1.8 1.5 1.9 3 1.2 7.8-4 12-10.4 12.1-19.2.1-18.7 0-37.5.1-56.2 0-2.2.1-4.3.2-6.5.2-3.2 2.1-5 5.1-4.9 2.8.1 4.8 2.2 4.9 5.3.1 2.7 0 5.3 0 8 .1 8 .1 16.3.1 24.5z" fill="#a48300"/></svg>