<svg viewBox="0 0 201.6 263.9"><path d="M56.2 251.4c8.4-3.3 16.7-6.6 25.3-9.8 14.7-5.5 18.5-12.5 12.1-16.9-.8-.6 0-1 1.3-1.5 3.8-1.5 7.5-2.9 11.3-4.4 11.7-4.6 23.4-9.1 35.1-13.7 10.2-3.9 20.4-7.8 30.6-11.8 4.2-1.6 4.7-2.4 2.6-3.9-1.9-1.3-4.7-2.3-9.1-2.5-2.8-.1-5.2.1-7.7 1.1-17.3 6.8-34.7 13.6-52 20.4-3.9 1.5-3.9 1.5-7.1.5-5.4-1.8-10.5-3.7-16.4-5.2-8.6-2.1-19.4-2-31.3-.4-7.5 1-14.2 2.7-20.1 5-9.2 3.5-18.4 7.1-27.5 10.7-3.7 1.5-4 2.7-1.1 3.5 2.2.6 5.5.2 8.6-.9 8.9-3.4 17.7-6.9 26.6-10.4 10.5-4.1 24.4-5.7 35.3-3.9 2.2.4 4.1.9 5.9 1.5 4.1 1.3 7.9 2.7 12 4 1.8.6 1.5 1.1-.6 1.9-6.9 2.6-13.8 5.3-20.5 8-3.7 1.5-5 3.1-3.8 4.6 1.2 1.6 4.5 2.2 9.1 2 2-.1 4.2-.5 6.2-.9 2.1-.5 2.9-.3 3.2.3 2 3.3-.6 6.6-8.6 9.7-16.8 6.6-33.8 13.2-50.6 19.8-1.9.8-3.9 1.5-5.7 2.3-2.7 1.2-3 2.3-.8 3 2.1.7 5.5.4 8.3-.6 2.4-.9 4.8-1.9 7.2-2.8 7.3-2.9 14.8-5.8 22.2-8.7z" fill="#db8e5c"/><path d="M201.5 38c0 9.3-.2 18.7.1 28 .5 16-9.9 28.5-23 31.9-1.7.4-1.9 1.6-1.9 3v51.5c.1 11.2.2 22.5.3 33.7 0 4.7-1 6.1-5.5 7.3-3.9 1-7.7 1-11.4-.9-2.3-1.2-3.6-2.8-3.6-5.7.2-19.3.2-38.7.3-58 0-4.4 0-4.3-4.4-4.4-7.3-.1-14.7.2-21.9-.6-10.4-1.1-18.1-7-23.8-15.6-3.6-5.4-5.3-11.5-5.4-17.9-.1-10.2-.1-20.3 0-30.5 0-4.2 2.1-6.2 5.7-5.8 2.7.2 4.5 2.5 4.5 5.9v29.5c0 11.7 7.3 21.2 18.6 24.2 2.3.6 4.8.8 7.2.8 5.5.1 11-.1 16.5.1 2.5.1 3.2-.8 3.1-3.2-.1-7.6-.1-15.2 0-22.7.1-4.2 2.2-7.3 6-9 3.8-1.7 7.4-1 10.4 1.7 1.3 1.2 2.3 2.9 2.9 4.5.7 1.8 1.5 1.9 3 1.2 7.8-4 12-10.4 12.1-19.2.1-18.7 0-37.5.1-56.2 0-2.2.1-4.3.2-6.5.2-3.2 2.1-5 5.1-4.9 2.8.1 4.8 2.2 4.9 5.3.1 2.7 0 5.3 0 8-.1 8-.1 16.3-.1 24.5z" fill="#a48300"/></svg>